<mxfile host="app.diagrams.net" agent="Mozilla/5.0 (Windows NT 10.0; Win64; x64) AppleWebKit/537.36 (KHTML, like Gecko) Chrome/129.0.0.0 Safari/537.36" version="28.2.3">
  <diagram name="Page-1" id="ZU5ou_c260VMI8BkDugq">
    <mxGraphModel dx="1042" dy="1670" grid="1" gridSize="10" guides="1" tooltips="1" connect="1" arrows="1" fold="1" page="1" pageScale="1" pageWidth="850" pageHeight="1100" math="0" shadow="0">
      <root>
        <mxCell id="0" />
        <mxCell id="1" parent="0" />
        <mxCell id="D5_to-sRCKfcogDpb_UM-41" value="" style="edgeStyle=orthogonalEdgeStyle;rounded=0;orthogonalLoop=1;jettySize=auto;html=1;" edge="1" parent="1" source="D5_to-sRCKfcogDpb_UM-2" target="D5_to-sRCKfcogDpb_UM-40">
          <mxGeometry relative="1" as="geometry" />
        </mxCell>
        <mxCell id="D5_to-sRCKfcogDpb_UM-2" value="start" style="ellipse;whiteSpace=wrap;html=1;" vertex="1" parent="1">
          <mxGeometry x="250" y="-1060" width="160" height="130" as="geometry" />
        </mxCell>
        <mxCell id="D5_to-sRCKfcogDpb_UM-66" value="" style="edgeStyle=orthogonalEdgeStyle;rounded=0;orthogonalLoop=1;jettySize=auto;html=1;" edge="1" parent="1" source="D5_to-sRCKfcogDpb_UM-40">
          <mxGeometry relative="1" as="geometry">
            <mxPoint x="330" y="-652" as="targetPoint" />
          </mxGeometry>
        </mxCell>
        <mxCell id="D5_to-sRCKfcogDpb_UM-40" value="a,b,c" style="shape=parallelogram;perimeter=parallelogramPerimeter;whiteSpace=wrap;html=1;fixedSize=1;" vertex="1" parent="1">
          <mxGeometry x="235" y="-850" width="190" height="105" as="geometry" />
        </mxCell>
        <mxCell id="D5_to-sRCKfcogDpb_UM-86" value="" style="edgeStyle=orthogonalEdgeStyle;rounded=0;orthogonalLoop=1;jettySize=auto;html=1;" edge="1" parent="1" source="D5_to-sRCKfcogDpb_UM-84" target="D5_to-sRCKfcogDpb_UM-85">
          <mxGeometry relative="1" as="geometry" />
        </mxCell>
        <mxCell id="D5_to-sRCKfcogDpb_UM-84" value="max=a" style="rounded=0;whiteSpace=wrap;html=1;" vertex="1" parent="1">
          <mxGeometry x="240" y="-660" width="170" height="110" as="geometry" />
        </mxCell>
        <mxCell id="D5_to-sRCKfcogDpb_UM-88" value="yes" style="edgeStyle=orthogonalEdgeStyle;rounded=0;orthogonalLoop=1;jettySize=auto;html=1;" edge="1" parent="1" source="D5_to-sRCKfcogDpb_UM-85" target="D5_to-sRCKfcogDpb_UM-87">
          <mxGeometry relative="1" as="geometry" />
        </mxCell>
        <mxCell id="D5_to-sRCKfcogDpb_UM-90" value="no" style="edgeStyle=orthogonalEdgeStyle;rounded=0;orthogonalLoop=1;jettySize=auto;html=1;" edge="1" parent="1" source="D5_to-sRCKfcogDpb_UM-85" target="D5_to-sRCKfcogDpb_UM-89">
          <mxGeometry relative="1" as="geometry" />
        </mxCell>
        <mxCell id="D5_to-sRCKfcogDpb_UM-85" value="max&amp;lt;b" style="rhombus;whiteSpace=wrap;html=1;rounded=0;" vertex="1" parent="1">
          <mxGeometry x="252.5" y="-450" width="145" height="135" as="geometry" />
        </mxCell>
        <mxCell id="D5_to-sRCKfcogDpb_UM-94" style="edgeStyle=orthogonalEdgeStyle;rounded=0;orthogonalLoop=1;jettySize=auto;html=1;" edge="1" parent="1" source="D5_to-sRCKfcogDpb_UM-87">
          <mxGeometry relative="1" as="geometry">
            <mxPoint x="585" y="-160" as="targetPoint" />
          </mxGeometry>
        </mxCell>
        <mxCell id="D5_to-sRCKfcogDpb_UM-87" value="max=b" style="whiteSpace=wrap;html=1;rounded=0;" vertex="1" parent="1">
          <mxGeometry x="510" y="-428.75" width="150" height="92.5" as="geometry" />
        </mxCell>
        <mxCell id="D5_to-sRCKfcogDpb_UM-93" style="edgeStyle=orthogonalEdgeStyle;rounded=0;orthogonalLoop=1;jettySize=auto;html=1;" edge="1" parent="1" source="D5_to-sRCKfcogDpb_UM-89">
          <mxGeometry relative="1" as="geometry">
            <mxPoint x="580" y="-172.5" as="targetPoint" />
          </mxGeometry>
        </mxCell>
        <mxCell id="D5_to-sRCKfcogDpb_UM-96" value="yes" style="edgeStyle=orthogonalEdgeStyle;rounded=0;orthogonalLoop=1;jettySize=auto;html=1;" edge="1" parent="1" source="D5_to-sRCKfcogDpb_UM-89" target="D5_to-sRCKfcogDpb_UM-95">
          <mxGeometry relative="1" as="geometry" />
        </mxCell>
        <mxCell id="D5_to-sRCKfcogDpb_UM-97" style="edgeStyle=orthogonalEdgeStyle;rounded=0;orthogonalLoop=1;jettySize=auto;html=1;" edge="1" parent="1">
          <mxGeometry relative="1" as="geometry">
            <mxPoint x="80" y="200" as="targetPoint" />
            <mxPoint x="262.5" y="-172.5" as="sourcePoint" />
          </mxGeometry>
        </mxCell>
        <mxCell id="D5_to-sRCKfcogDpb_UM-89" value="max&amp;lt;c" style="rhombus;whiteSpace=wrap;html=1;rounded=0;" vertex="1" parent="1">
          <mxGeometry x="252.5" y="-240" width="145" height="135" as="geometry" />
        </mxCell>
        <mxCell id="D5_to-sRCKfcogDpb_UM-99" value="" style="edgeStyle=orthogonalEdgeStyle;rounded=0;orthogonalLoop=1;jettySize=auto;html=1;" edge="1" parent="1" source="D5_to-sRCKfcogDpb_UM-95" target="D5_to-sRCKfcogDpb_UM-98">
          <mxGeometry relative="1" as="geometry" />
        </mxCell>
        <mxCell id="D5_to-sRCKfcogDpb_UM-95" value="max=c" style="whiteSpace=wrap;html=1;rounded=0;" vertex="1" parent="1">
          <mxGeometry x="237.5" y="-10" width="175" height="107.5" as="geometry" />
        </mxCell>
        <mxCell id="D5_to-sRCKfcogDpb_UM-100" style="edgeStyle=orthogonalEdgeStyle;rounded=0;orthogonalLoop=1;jettySize=auto;html=1;" edge="1" parent="1" source="D5_to-sRCKfcogDpb_UM-98">
          <mxGeometry relative="1" as="geometry">
            <mxPoint x="80" y="203.75" as="targetPoint" />
          </mxGeometry>
        </mxCell>
        <mxCell id="D5_to-sRCKfcogDpb_UM-102" value="" style="edgeStyle=orthogonalEdgeStyle;rounded=0;orthogonalLoop=1;jettySize=auto;html=1;" edge="1" parent="1" source="D5_to-sRCKfcogDpb_UM-98" target="D5_to-sRCKfcogDpb_UM-101">
          <mxGeometry relative="1" as="geometry" />
        </mxCell>
        <mxCell id="D5_to-sRCKfcogDpb_UM-98" value="max" style="whiteSpace=wrap;html=1;rounded=0;" vertex="1" parent="1">
          <mxGeometry x="237.5" y="150" width="175" height="107.5" as="geometry" />
        </mxCell>
        <mxCell id="D5_to-sRCKfcogDpb_UM-101" value="end" style="ellipse;whiteSpace=wrap;html=1;rounded=0;" vertex="1" parent="1">
          <mxGeometry x="247.5" y="351.25" width="155" height="118.75" as="geometry" />
        </mxCell>
      </root>
    </mxGraphModel>
  </diagram>
</mxfile>
